<?xml version="1.0" encoding="UTF-8"?>
<svg width="100pt" height="100pt" version="1.1" viewBox="0 0 100 100" xmlns="http://www.w3.org/2000/svg">
 <path d="m85.582 60.605c-20.977 2.5781-40.633-11.016-45.434-31.734-1.0977-4.7383-1.3516-9.6328-0.76172-14.441-5.8086 1.7422-11.059 4.8633-15.496 9.3008-7.2461 7.2461-10.848 16.723-10.848 26.188 0 20.453 16.586 37.051 37.047 37.051 9.4688 0 18.949-3.6211 26.195-10.867 4.4375-4.4375 7.5586-9.6875 9.3008-15.492zm4.9688-11.887c3.5586-1.2109 7.2578 1.6484 6.9258 5.4336-0.96875 11.02-5.8086 21.484-13.734 29.41-9.2812 9.2773-21.465 13.938-33.66 13.938-26.289 0-47.586-21.309-47.586-47.59 0.003906-23.086 16.438-42.562 38.789-46.75 1.3789-0.25781 2.7656-0.45312 4.1562-0.58984 3.8633-0.63672 7.1406 3.0977 5.8438 6.8906-1.8828 5.5039-2.1719 11.43-0.86719 17.059 2.6406 11.391 11.672 20.422 23.066 23.059 5.6328 1.3047 11.562 1.0234 17.066-0.85938z" fill-rule="evenodd"/>
</svg>
